<svg width="35" height="40" viewBox="0 0 35 40" fill="none" xmlns="http://www.w3.org/2000/svg">
<path d="M26.8726 25.1694C25.1525 25.1694 23.5715 25.7643 22.3235 26.7592L14.5259 21.8857C14.7568 20.8412 14.7568 19.7588 14.5259 18.7143L22.3235 13.8408C23.5715 14.8357 25.1525 15.4306 26.8726 15.4306C30.9065 15.4306 34.1767 12.1604 34.1767 8.1265C34.1767 4.09258 30.9065 0.822388 26.8726 0.822388C22.8386 0.822388 19.5685 4.09258 19.5685 8.1265C19.5685 8.67112 19.6286 9.20158 19.7416 9.71218L11.944 14.5857C10.696 13.5908 9.11505 12.9959 7.39493 12.9959C3.36101 12.9959 0.0908203 16.2661 0.0908203 20.3C0.0908203 24.334 3.36101 27.6041 7.39493 27.6041C9.11505 27.6041 10.696 27.0092 11.944 26.0144L19.7416 30.8879C19.6264 31.4086 19.5683 31.9403 19.5685 32.4736C19.5685 36.5075 22.8386 39.7777 26.8726 39.7777C30.9065 39.7777 34.1767 36.5075 34.1767 32.4736C34.1767 28.4396 30.9065 25.1694 26.8726 25.1694Z" fill="#444444"/>
</svg>
