<svg width="65" height="65" viewBox="0 0 65 65" fill="none" xmlns="http://www.w3.org/2000/svg">
<path d="M24.1174 26.8346C24.1174 24.6299 22.3295 22.842 20.1248 22.842H18.1285C13.7179 22.842 10.1432 26.4166 10.1432 30.8272V36.8162C10.1432 41.2268 13.7179 44.8014 18.1285 44.8014H20.1248C22.3295 44.8014 24.1174 43.0135 24.1174 40.8088V26.8346ZM46.0768 44.8014C50.4874 44.8014 54.0621 41.2268 54.0621 36.8162V30.8272C54.0621 26.4166 50.4874 22.842 46.0768 22.842H44.0805C41.8758 22.842 40.0879 24.6299 40.0879 26.8346V40.8088C40.0879 43.0135 41.8758 44.8014 44.0805 44.8014H46.0768ZM32.1027 0.882568C14.2831 0.882568 0.733126 15.7089 0.161682 32.8235V34.8199C0.161682 35.9228 1.05503 36.8162 2.15799 36.8162H4.1543C5.25727 36.8162 6.15061 35.9228 6.15061 34.8199V32.8235C6.15061 18.5137 17.7929 6.8715 32.1027 6.8715C46.4125 6.8715 58.0547 18.5137 58.0547 32.8235H58.0397C58.0497 33.1267 58.0547 53.5003 58.0547 53.5003C58.0547 56.4137 55.6928 58.7756 52.7794 58.7756H40.0879C40.0879 55.4679 37.4066 52.7867 34.099 52.7867H30.1063C26.7987 52.7867 24.1174 55.4679 24.1174 58.7756C24.1174 62.0832 26.7987 64.7645 30.1063 64.7645H52.7794C59.0005 64.7645 64.0436 59.7213 64.0436 53.5003V32.8235C63.4722 15.7089 49.9222 0.882568 32.1027 0.882568Z" fill="#555555"/>
</svg>
