<svg width="60" height="61" viewBox="0 0 60 61" fill="none" xmlns="http://www.w3.org/2000/svg">
<path d="M33.2889 1.91578L19.5455 15.6576H3.78003C1.73173 15.6576 0.0726929 17.3167 0.0726929 19.365V41.609C0.0726929 43.6558 1.73173 45.3163 3.78003 45.3163H19.5455L33.2889 59.0567C35.6106 61.3784 39.6176 59.7472 39.6176 56.4353V4.53872C39.6176 1.22219 35.6075 -0.401311 33.2889 1.91578ZM52.3199 18.6112C50.5311 17.6333 48.2743 18.2775 47.2826 20.0709C46.2955 21.8643 46.9489 24.1181 48.7423 25.1083C50.7366 26.205 51.9754 28.2657 51.9754 30.487C51.9754 32.7083 50.7366 34.769 48.7439 35.8642C46.9504 36.8543 46.297 39.1081 47.2841 40.9015C48.2774 42.7027 50.5357 43.3422 52.3214 42.3613C56.6822 39.9592 59.3916 35.41 59.3916 30.4854C59.3916 25.5609 56.6822 21.0132 52.3199 18.6112Z" fill="#555555"/>
</svg>
