<svg width="69" height="49" viewBox="0 0 69 49" fill="none" xmlns="http://www.w3.org/2000/svg">
<path d="M57.96 21.0227C58.402 19.8691 58.65 18.6077 58.65 17.2924C58.65 11.5783 54.0141 6.94236 48.3 6.94236C46.1761 6.94236 44.1923 7.58923 42.5536 8.68892C39.5672 3.51392 33.9933 0.0423584 27.6 0.0423584C18.0694 0.0423584 10.35 7.76173 10.35 17.2924C10.35 17.5835 10.3608 17.8745 10.3716 18.1656C4.33406 20.2895 0 26.0467 0 32.8174C0 41.3885 6.95391 48.3424 15.525 48.3424H55.2C62.8223 48.3424 69 42.1647 69 34.5424C69 27.8688 64.2562 22.2949 57.96 21.0227ZM43.6317 30.5856L32.2683 41.9491C31.5998 42.6175 30.5002 42.6175 29.8317 41.9491L18.4683 30.5856C17.3794 29.4967 18.1556 27.6424 19.6866 27.6424H26.7375V15.5674C26.7375 14.6186 27.5138 13.8424 28.4625 13.8424H33.6375C34.5863 13.8424 35.3625 14.6186 35.3625 15.5674V27.6424H42.4134C43.9444 27.6424 44.7206 29.4967 43.6317 30.5856V30.5856Z" fill="#555555"/>
</svg>
