<svg width="39" height="39" viewBox="0 0 39 39" fill="none" xmlns="http://www.w3.org/2000/svg">
<path d="M21.8124 1.51682L13.0377 10.2905H2.97199C1.66422 10.2905 0.60498 11.3498 0.60498 12.6576V26.8596C0.60498 28.1664 1.66422 29.2266 2.97199 29.2266H13.0377L21.8124 37.9994C23.2948 39.4817 25.8531 38.4402 25.8531 36.3257V3.19148C25.8531 1.07399 23.2928 0.0374339 21.8124 1.51682ZM33.9631 12.1763C32.821 11.552 31.3801 11.9632 30.7469 13.1083C30.1167 14.2533 30.5339 15.6923 31.6789 16.3244C32.9522 17.0247 33.7432 18.3404 33.7432 19.7586C33.7432 21.1768 32.9522 22.4925 31.6799 23.1917C30.5349 23.8239 30.1177 25.2629 30.7479 26.4079C31.3821 27.5579 32.824 27.9662 33.9641 27.3399C36.7483 25.8063 38.4782 22.9018 38.4782 19.7576C38.4782 16.6134 36.7483 13.7099 33.9631 12.1763Z" fill="#444444"/>
</svg>
