<svg width="60" height="69" viewBox="0 0 60 69" fill="none" xmlns="http://www.w3.org/2000/svg">
<path d="M0.0152588 62.1274C0.0152588 65.6363 2.86204 68.483 6.37086 68.483H52.9786C56.4874 68.483 59.3342 65.6363 59.3342 62.1274V26.1124H0.0152588V62.1274ZM42.3859 36.1754C42.3859 35.3015 43.1009 34.5865 43.9748 34.5865H49.2712C50.1451 34.5865 50.8601 35.3015 50.8601 36.1754V41.4717C50.8601 42.3456 50.1451 43.0606 49.2712 43.0606H43.9748C43.1009 43.0606 42.3859 42.3456 42.3859 41.4717V36.1754ZM42.3859 53.1237C42.3859 52.2498 43.1009 51.5348 43.9748 51.5348H49.2712C50.1451 51.5348 50.8601 52.2498 50.8601 53.1237V58.42C50.8601 59.2939 50.1451 60.0089 49.2712 60.0089H43.9748C43.1009 60.0089 42.3859 59.2939 42.3859 58.42V53.1237ZM25.4377 36.1754C25.4377 35.3015 26.1527 34.5865 27.0266 34.5865H32.3229C33.1968 34.5865 33.9118 35.3015 33.9118 36.1754V41.4717C33.9118 42.3456 33.1968 43.0606 32.3229 43.0606H27.0266C26.1527 43.0606 25.4377 42.3456 25.4377 41.4717V36.1754ZM25.4377 53.1237C25.4377 52.2498 26.1527 51.5348 27.0266 51.5348H32.3229C33.1968 51.5348 33.9118 52.2498 33.9118 53.1237V58.42C33.9118 59.2939 33.1968 60.0089 32.3229 60.0089H27.0266C26.1527 60.0089 25.4377 59.2939 25.4377 58.42V53.1237ZM8.4894 36.1754C8.4894 35.3015 9.2044 34.5865 10.0783 34.5865H15.3746C16.2485 34.5865 16.9635 35.3015 16.9635 36.1754V41.4717C16.9635 42.3456 16.2485 43.0606 15.3746 43.0606H10.0783C9.2044 43.0606 8.4894 42.3456 8.4894 41.4717V36.1754ZM8.4894 53.1237C8.4894 52.2498 9.2044 51.5348 10.0783 51.5348H15.3746C16.2485 51.5348 16.9635 52.2498 16.9635 53.1237V58.42C16.9635 59.2939 16.2485 60.0089 15.3746 60.0089H10.0783C9.2044 60.0089 8.4894 59.2939 8.4894 58.42V53.1237ZM52.9786 9.16408H46.623V2.80848C46.623 1.64328 45.6697 0.689941 44.5045 0.689941H40.2674C39.1022 0.689941 38.1489 1.64328 38.1489 2.80848V9.16408H21.2006V2.80848C21.2006 1.64328 20.2473 0.689941 19.0821 0.689941H14.845C13.6798 0.689941 12.7265 1.64328 12.7265 2.80848V9.16408H6.37086C2.86204 9.16408 0.0152588 12.0109 0.0152588 15.5197V21.8753H59.3342V15.5197C59.3342 12.0109 56.4874 9.16408 52.9786 9.16408Z" fill="#555555"/>
</svg>
