<svg width="70" height="47" viewBox="0 0 70 47" fill="none" xmlns="http://www.w3.org/2000/svg">
<path d="M16.0137 12.1021H54.0387V34.9171H16.0137V12.1021ZM63.5449 23.5096C63.5449 26.6597 66.0985 29.2133 69.2487 29.2133V40.6208C69.2487 43.7709 66.695 46.3245 63.5449 46.3245H6.50746C3.35733 46.3245 0.803711 43.7709 0.803711 40.6208V29.2133C3.95384 29.2133 6.50746 26.6597 6.50746 23.5096C6.50746 20.3594 3.95384 17.8058 0.803711 17.8058V6.39833C0.803711 3.24819 3.35733 0.69458 6.50746 0.69458H63.5449C66.695 0.69458 69.2487 3.24819 69.2487 6.39833V17.8058C66.0985 17.8058 63.5449 20.3594 63.5449 23.5096ZM57.8412 11.1514C57.8412 9.57638 56.5644 8.29957 54.9893 8.29957H15.0631C13.488 8.29957 12.2112 9.57638 12.2112 11.1514V35.8677C12.2112 37.4427 13.488 38.7196 15.0631 38.7196H54.9893C56.5644 38.7196 57.8412 37.4427 57.8412 35.8677V11.1514Z" fill="#555555"/>
</svg>
