<svg width="46" height="40" viewBox="0 0 46 40" fill="none" xmlns="http://www.w3.org/2000/svg">
<path d="M14.3543 22.9062H12.9341C9.7962 22.9062 7.25308 25.4537 7.25308 28.5978V34.2575C7.25308 37.4007 9.7962 39.9491 12.9341 39.9491H14.3543C15.9228 39.9491 17.1948 38.6744 17.1948 37.1033V25.752C17.1948 24.1799 15.9228 22.9062 14.3543 22.9062ZM32.8175 22.9062H31.3972C29.8288 22.9062 28.5567 24.1799 28.5567 25.752V37.1033C28.5567 38.6744 29.8288 39.9491 31.3972 39.9491H32.8175C35.9553 39.9491 38.4985 37.4007 38.4985 34.2575V28.5978C38.4985 25.4546 35.9553 22.9062 32.8175 22.9062ZM22.8758 0.182251C10.1743 0.182251 0.557513 10.7569 0.151855 22.9062V32.8479C0.151855 33.6326 0.787415 34.2681 1.5721 34.2681H2.99234C3.77703 34.2681 4.41259 33.6326 4.41259 32.8479V22.9062C4.41259 12.7274 12.6971 4.46074 22.8758 4.45896C33.0545 4.46074 41.3389 12.7274 41.3389 22.9062V32.8479C41.3389 33.6326 41.9745 34.2681 42.7592 34.2681H44.1794C44.9641 34.2681 45.5997 33.6326 45.5997 32.8479V22.9062C45.194 10.7569 35.5772 0.182251 22.8758 0.182251Z" fill="#444444"/>
</svg>
