<svg width="170" height="170" viewBox="0 0 170 170" fill="none" xmlns="http://www.w3.org/2000/svg">
<path d="M34.4553 74.2115H7.95123C3.55983 74.2115 0 77.7714 0 82.1628V161.675C0 166.066 3.55983 169.626 7.95123 169.626H34.4553C38.8467 169.626 42.4066 166.066 42.4066 161.675V82.1628C42.4066 77.7714 38.8467 74.2115 34.4553 74.2115ZM21.2033 156.374C16.8119 156.374 13.2521 152.814 13.2521 148.423C13.2521 144.032 16.8119 140.472 21.2033 140.472C25.5947 140.472 29.1545 144.032 29.1545 148.423C29.1545 152.814 25.5947 156.374 21.2033 156.374ZM127.22 26.9852C127.22 41.0376 118.616 48.92 116.195 58.3091H149.896C160.96 58.3091 169.574 67.5013 169.626 77.557C169.654 83.4999 167.126 89.8977 163.186 93.856L163.149 93.8925C166.408 101.624 165.878 112.458 160.066 120.221C162.942 128.8 160.043 139.338 154.638 144.988C156.062 150.818 155.382 155.78 152.601 159.774C145.84 169.489 129.08 169.626 114.908 169.626L113.966 169.626C97.9681 169.62 84.8755 163.796 74.3553 159.115C69.0687 156.764 62.1565 153.852 56.912 153.756C54.7452 153.716 53.0082 151.948 53.0082 149.781V78.9584C53.0082 77.8982 53.433 76.8808 54.187 76.1354C67.3112 63.1669 72.9546 49.4368 83.7116 38.6616C88.6162 33.7477 90.3999 26.3252 92.1243 19.1472C93.5976 13.0178 96.6794 0 103.366 0C111.317 0 127.22 2.65041 127.22 26.9852V26.9852Z" fill="#555555"/>
</svg>
