<svg width="170" height="149" viewBox="0 0 170 149" fill="none" xmlns="http://www.w3.org/2000/svg">
<path d="M153.724 148.423H15.9025C7.11966 148.423 0 141.303 0 132.52V15.9025C0 7.11966 7.11966 0 15.9025 0H153.724C162.507 0 169.626 7.11966 169.626 15.9025V132.52C169.626 141.303 162.507 148.423 153.724 148.423ZM42.4066 29.1545C35.0878 29.1545 29.1545 35.0878 29.1545 42.4066C29.1545 49.7253 35.0878 55.6586 42.4066 55.6586C49.7253 55.6586 55.6586 49.7253 55.6586 42.4066C55.6586 35.0878 49.7253 29.1545 42.4066 29.1545ZM42.4066 60.9594C35.0878 60.9594 29.1545 66.8927 29.1545 74.2115C29.1545 81.5302 35.0878 87.4635 42.4066 87.4635C49.7253 87.4635 55.6586 81.5302 55.6586 74.2115C55.6586 66.8927 49.7253 60.9594 42.4066 60.9594ZM42.4066 92.7643C35.0878 92.7643 29.1545 98.6976 29.1545 106.016C29.1545 113.335 35.0878 119.268 42.4066 119.268C49.7253 119.268 55.6586 113.335 55.6586 106.016C55.6586 98.6976 49.7253 92.7643 42.4066 92.7643ZM137.821 47.7074V37.1057C137.821 34.9102 136.041 33.1301 133.846 33.1301H67.5854C65.3899 33.1301 63.6098 34.9102 63.6098 37.1057V47.7074C63.6098 49.9029 65.3899 51.683 67.5854 51.683H133.846C136.041 51.683 137.821 49.9029 137.821 47.7074ZM137.821 79.5123V68.9107C137.821 66.7151 136.041 64.935 133.846 64.935H67.5854C65.3899 64.935 63.6098 66.7151 63.6098 68.9107V79.5123C63.6098 81.7078 65.3899 83.4879 67.5854 83.4879H133.846C136.041 83.4879 137.821 81.7078 137.821 79.5123ZM137.821 111.317V100.716C137.821 98.52 136.041 96.74 133.846 96.74H67.5854C65.3899 96.74 63.6098 98.52 63.6098 100.716V111.317C63.6098 113.513 65.3899 115.293 67.5854 115.293H133.846C136.041 115.293 137.821 113.513 137.821 111.317Z" fill="#555555"/>
</svg>
