<svg width="170" height="136" viewBox="0 0 170 136" fill="none" xmlns="http://www.w3.org/2000/svg">
<path d="M40.0053 50.8879H48.9451C51.8632 50.8879 53.8775 48.0175 52.8836 45.2743C51.577 41.675 50.8826 37.8585 50.8826 33.9252C50.8826 29.992 51.577 26.1754 52.8836 22.5762C53.8802 19.833 51.8632 16.9626 48.9451 16.9626H40.0053C38.1473 16.9626 36.4378 18.1527 35.921 19.939C34.625 24.4394 33.9252 29.1227 33.9252 33.9252C33.9252 38.7278 34.6249 43.4111 35.9237 47.9088C36.4378 49.6952 38.1473 50.8879 40.0053 50.8879V50.8879ZM23.8325 6.18606C25.3273 3.37132 23.3157 0 20.1325 0H10.7686C9.10681 0 7.55102 0.951497 6.86191 2.46753C2.49138 12.07 0 22.7008 0 33.9252C0 40.485 0.826928 52.0355 7.07394 65.428C7.76835 66.9202 9.30559 67.8505 10.9462 67.8505H20.1802C23.366 67.8505 25.3777 64.4739 23.8775 61.6565C10.6838 36.9229 19.4487 14.4394 23.8325 6.18606ZM162.751 2.46223C162.062 0.948847 160.509 0 158.847 0H149.459C146.284 0 144.249 3.35542 145.743 6.1622C150.586 15.2505 158.577 37.8134 145.818 61.6167C144.302 64.4474 146.295 67.8505 149.504 67.8505H158.842C160.504 67.8505 162.057 66.9016 162.746 65.3883C167.127 55.7858 169.626 45.1524 169.626 33.9252C169.626 22.6981 167.13 12.0647 162.751 2.46223V2.46223ZM129.621 16.9626H120.681C117.763 16.9626 115.749 19.833 116.743 22.5762C118.049 26.1754 118.744 29.992 118.744 33.9252C118.744 37.8585 118.049 41.675 116.743 45.2743C115.746 48.0175 117.763 50.8879 120.681 50.8879H129.621C131.482 50.8879 133.188 49.6978 133.705 47.9088C135.004 43.4111 135.701 38.7278 135.701 33.9252C135.701 29.1227 135.001 24.4394 133.703 19.9417C133.188 18.1527 131.479 16.9626 129.621 16.9626V16.9626ZM98.7967 43.4985C100.665 40.7713 101.765 37.4794 101.765 33.9252C101.765 24.556 94.177 16.9626 84.8131 16.9626C75.4519 16.9626 67.8611 24.556 67.8611 33.9252C67.8611 37.4794 68.961 40.7713 70.8295 43.4985L36.2417 126.565C35.3406 128.725 36.3636 131.209 38.5237 132.11L46.3451 135.372C48.5051 136.273 50.9886 135.25 51.8871 133.09L64.9244 101.776H104.699L117.739 133.09C118.64 135.253 121.121 136.273 123.281 135.372L131.103 132.11C133.263 131.209 134.283 128.725 133.385 126.565L98.7967 43.4985ZM71.9904 84.8131L84.8131 54.018L97.6358 84.8131H71.9904Z" fill="#555555"/>
</svg>
