<svg width="132" height="156" viewBox="0 0 132 156" fill="none" xmlns="http://www.w3.org/2000/svg">
<path d="M64.4181 75.9813C64.3442 75.7089 64.2173 75.4537 64.0447 75.2304C63.8721 75.007 63.6571 74.8199 63.412 74.6797L59.4748 72.4302C59.0122 72.1654 58.4676 72.0819 57.9468 72.196C57.426 72.31 56.9662 72.6135 56.6566 73.0474C56.6148 73.1048 56.5765 73.1647 56.5421 73.2269L49.796 85.0105L49.0574 86.2981L37.7707 106.014C37.4889 106.509 37.4148 107.096 37.5648 107.646C37.7148 108.196 38.0765 108.664 38.5709 108.948L42.505 111.198C43.0002 111.48 43.5873 111.555 44.1376 111.405C44.6879 111.256 45.1565 110.895 45.4407 110.4L51.6946 99.4761L57.3305 89.6275L64.2091 77.6139C64.3498 77.3689 64.4407 77.0986 64.4766 76.8184C64.5124 76.5383 64.4926 76.2538 64.4181 75.9813Z" fill="#6C63FF"/>
<path d="M113.725 46.4335L110.898 42.8909C110.541 42.4467 110.023 42.1618 109.457 42.0985C108.89 42.0353 108.322 42.1987 107.876 42.5531L92.9978 54.4203L83.6448 61.8815L78.336 66.1159C78.1971 66.2263 78.0732 66.3542 77.9673 66.4966C77.7301 66.8037 77.5823 67.1703 77.5402 67.5559C77.5077 67.8365 77.5314 68.1208 77.6099 68.3922C77.6884 68.6635 77.8201 68.9166 77.9974 69.1365L79.1018 70.5219L80.8243 72.6791C81.0001 72.9 81.2179 73.084 81.4651 73.2205C81.7123 73.3569 81.9841 73.4432 82.2648 73.4743C82.4875 73.4978 82.7125 73.4876 82.9322 73.444C83.2669 73.3773 83.5805 73.2307 83.8463 73.0169L90.1521 67.988L98.3972 61.4092L113.386 49.454C113.83 49.0974 114.116 48.5795 114.179 48.0134C114.242 47.4474 114.079 46.8793 113.725 46.4334L113.725 46.4335Z" fill="#6C63FF"/>
<path d="M98.5259 61.5808L98.3976 61.4092L93.3699 54.7906C93.0184 54.3427 92.5042 54.0518 91.9391 53.9809C91.6567 53.9456 91.3701 53.967 91.096 54.0439C90.822 54.1208 90.5661 54.2516 90.3433 54.4287L82.7089 61.43L77.6268 66.0919C77.5872 66.1229 77.5523 66.1594 77.5232 66.2003C77.2515 66.5647 77.2267 67.365 77.2076 68.0202C77.1996 68.2472 77.1955 68.4453 77.178 68.5772C77.1732 68.6314 77.166 68.6892 77.1648 68.7458C77.1416 69.2566 77.3021 69.7588 77.6173 70.1614L78.6119 71.4372L80.406 73.7336C80.6526 74.0484 80.9819 74.2886 81.357 74.4275C81.7322 74.5663 82.1386 74.5984 82.5309 74.5201C82.8534 74.4553 83.156 74.3153 83.4142 74.1117L90.8664 69.3011L98.1518 64.596C98.6006 64.2451 98.892 63.7307 98.9621 63.1655C99.0322 62.6003 98.8753 62.0305 98.5259 61.5808L98.5259 61.5808Z" fill="#0059EA"/>
<path d="M67.5607 55.9904C76.4643 54.2086 82.2384 45.55 80.4575 36.6509C78.6766 27.7518 70.0151 21.9821 61.1114 23.7639C52.2078 25.5457 46.4337 34.2043 48.2146 43.1034C49.9955 52.0025 58.657 57.7722 67.5607 55.9904Z" fill="#6C63FF"/>
<path d="M77.6687 104.076C77.5712 103.67 77.3567 103.301 77.0517 103.015C76.7468 102.73 76.3647 102.54 75.9528 102.469C75.691 102.421 75.4226 102.424 75.1618 102.477L70.7156 103.366C70.1567 103.479 69.6652 103.808 69.349 104.283C69.0328 104.757 68.9176 105.337 69.0288 105.896L76.5609 143.533C76.6733 144.092 77.0029 144.583 77.4772 144.899C77.9516 145.215 78.5321 145.33 79.0912 145.219L83.5374 144.329C84.0963 144.217 84.5878 143.887 84.9041 143.413C85.2203 142.939 85.3355 142.358 85.2243 141.8L77.6922 104.162C77.6874 104.133 77.6796 104.104 77.6687 104.076Z" fill="#6C63FF"/>
<path d="M101.232 116.84C101.142 116.708 101.038 116.587 100.922 116.479L91.222 107.398L83.2308 99.9194L72.5795 102.051L73.5428 102.951L75.2587 104.558L80.5742 109.532L91.9657 120.194L94.8834 122.923C95.2994 123.312 95.853 123.521 96.4226 123.503C96.9923 123.484 97.5314 123.241 97.9217 122.825L101.022 119.515C101.355 119.159 101.557 118.7 101.595 118.214C101.634 117.728 101.505 117.243 101.232 116.84ZM73.3426 90.6631C72.9257 90.2741 72.3715 90.0663 71.8015 90.0853C71.2314 90.1043 70.6922 90.3485 70.302 90.7643L67.2012 94.0715C66.812 94.4882 66.604 95.0423 66.6229 95.612C66.6418 96.1818 66.8859 96.7207 67.3019 97.1106L68.9978 98.697L79.6492 96.5655L73.3426 90.6631Z" fill="#6C63FF"/>
<path d="M101.322 116.928C101.294 116.897 101.264 116.867 101.233 116.839C100.877 116.516 100.448 116.284 99.9821 116.163L95.6069 114.981C94.461 114.672 93.3659 115.023 93.1665 115.764L91.9665 120.194L87.0308 138.41C86.8284 139.152 87.5978 140.006 88.7407 140.316L93.1164 141.501C93.5518 141.623 94.0093 141.645 94.4544 141.565C95.0147 141.453 95.44 141.152 95.5569 140.718L101.692 118.072C101.735 117.866 101.724 117.652 101.659 117.451C101.594 117.251 101.478 117.07 101.322 116.928Z" fill="#6C63FF"/>
<path d="M67.2011 70.2731L66.4011 69.7506L65.9565 69.4544L63.4111 67.7875C62.9832 67.5075 62.4697 67.3884 61.9621 67.4512C61.9043 67.4597 61.8494 67.4675 61.7922 67.479C61.6663 67.5073 61.4699 67.5278 61.2403 67.555C60.5145 67.6376 59.6072 67.7377 59.3607 68.119L55.9551 72.5017L48.7571 81.7611C48.505 82.1429 48.3825 82.5956 48.4077 83.0523C48.4119 83.1622 48.4254 83.2716 48.4481 83.3792C48.4677 83.475 48.4949 83.569 48.5294 83.6604C48.6847 84.1037 48.982 84.4834 49.3752 84.7406L49.7959 85.0102L56.5663 89.3167C57.0431 89.6281 57.6238 89.7382 58.1815 89.6229C58.4253 89.5739 58.6583 89.4817 58.8696 89.3506C59.1422 89.183 59.3741 88.9569 59.5485 88.6886L67.0452 74.6913L67.5356 73.7759L67.8188 73.2495C68.1312 72.7727 68.2416 72.1915 68.1258 71.6335C68.01 71.0755 67.6775 70.5862 67.2011 70.2731Z" fill="#0059EA"/>
<path d="M63.3853 46.2788L63.248 45.68C64.3626 45.4245 65.3366 45.1565 65.9706 44.4657C66.1486 44.2612 66.2804 44.0207 66.3571 43.7607C66.4338 43.5006 66.4536 43.2272 66.4151 42.9588C66.3957 42.794 66.3385 42.636 66.248 42.4969C66.1575 42.3578 66.0362 42.2414 65.8934 42.1568C65.3173 41.8395 64.5512 42.1328 64.0261 42.5134L63.5734 42.8416L63.132 35.6683L63.7452 35.6306L64.1207 41.7324C64.8599 41.3445 65.6076 41.2982 66.1903 41.6192C66.4151 41.7479 66.6071 41.9268 66.7512 42.142C66.8954 42.3571 66.9878 42.6027 67.0213 42.8595C67.0751 43.2196 67.0494 43.5872 66.9461 43.9363C66.8428 44.2855 66.6644 44.6079 66.4233 44.8809C65.6087 45.7687 64.3759 46.0515 63.3853 46.2788Z" fill="white"/>
<path d="M70.0444 34.9028L66.7997 35.5522L66.9202 36.1543L70.1649 35.505L70.0444 34.9028Z" fill="white"/>
<path d="M59.803 36.9524L56.5583 37.6017L56.6789 38.2038L59.9235 37.5545L59.803 36.9524Z" fill="white"/>
<path d="M48.1032 19.4633C40.7442 17.8752 32.5924 21.7411 29.3752 28.5974C27.8148 32.0078 27.3948 35.83 28.1774 39.497C28.5584 41.3389 29.2485 43.1029 30.2184 44.7141C31.3121 46.5239 32.7991 48.054 34.3722 49.4513C37.5507 52.2747 41.477 54.7997 43.214 58.8512C43.9046 60.5167 44.2298 62.3111 44.1674 64.1133C44.1051 65.9156 43.6567 67.6836 42.8525 69.2978C42.0252 70.9157 40.8346 72.3202 39.3742 73.4012C37.9138 74.4823 36.2231 75.2105 34.4347 75.5288C30.8995 76.1964 26.8592 75.3938 24.2937 72.7415C23.0347 71.44 22.1712 69.5482 22.7473 67.7334C23.022 66.9117 23.5309 66.1882 24.2114 65.652C24.8918 65.1157 25.7141 64.7902 26.577 64.7154C28.2831 64.611 29.9415 65.7285 30.6485 67.2584C31.3932 68.8699 30.9119 70.7138 29.6877 71.9468C29.1101 72.5253 28.3766 72.923 27.5769 73.0913C26.9973 73.2166 27.2939 74.0899 27.8676 73.9659C28.7536 73.7508 29.5697 73.3118 30.2377 72.6909C30.9057 72.07 31.4032 71.2881 31.6826 70.4199C31.9578 69.5518 31.9896 68.6249 31.7743 67.7402C31.559 66.8555 31.105 66.047 30.4618 65.4029C29.8377 64.7366 29.0445 64.2522 28.1668 64.0013C27.2891 63.7503 26.3596 63.7422 25.4775 63.9778C24.5907 64.2393 23.7856 64.724 23.1395 65.3855C22.4934 66.0471 22.0277 66.8635 21.7871 67.7564C21.2982 69.6824 22.109 71.6545 23.3746 73.0936C24.7066 74.5534 26.422 75.6094 28.3252 76.1414C30.155 76.6685 32.0754 76.8041 33.9614 76.5394C35.8473 76.2747 37.6566 75.6157 39.2714 74.6052C42.5228 72.5522 44.5767 69.0036 45.0044 65.2071C45.2274 63.3147 45.0455 61.3967 44.4707 59.5804C43.7779 57.5916 42.6575 55.7791 41.1883 54.2708C38.0972 50.9437 33.9425 48.6353 31.3768 44.8171C29.2217 41.5275 28.3258 37.5699 28.8537 33.6715C29.3416 29.7776 31.3086 26.2203 34.3469 23.7368C37.3878 21.2771 41.1955 19.9641 45.1049 20.027C46.0534 20.0506 46.9975 20.1645 47.9243 20.3674C48.5048 20.4927 48.6832 19.5885 48.1032 19.4634L48.1032 19.4633Z" fill="#0059EA"/>
<path d="M87.0716 70.687C86.8528 70.2361 86.6148 69.7983 86.3576 69.3739C84.7948 66.7764 82.5423 64.6627 79.8503 63.2674C79.5455 63.1061 79.2334 62.9556 78.914 62.816C77.3278 62.1142 75.6398 61.6692 73.9135 61.4977C73.9508 61.0068 73.8502 60.5153 73.6229 60.0786C73.324 59.5308 72.856 59.0942 72.2887 58.8339C71.7213 58.5735 71.085 58.5033 70.4744 58.6337L66.5463 59.4198C65.9311 59.5345 65.3693 59.8446 64.9446 60.3041C64.5199 60.7635 64.2549 61.3477 64.189 61.9697C64.1475 62.4588 64.2435 62.9497 64.4661 63.3871C61.3712 65.0589 58.894 67.6786 57.3984 70.8613C55.9028 74.044 55.4675 77.622 56.1566 81.0698L62.4031 112.283C62.8295 114.413 63.9862 115.983 64.9833 115.783L93.6 110.056C93.612 110.054 101.754 108.425 101.765 108.416C102.741 108.187 103.189 106.31 102.768 104.205C101.326 96.9991 97.7058 87.1902 93.3293 81.2859L88.388 74.6196C88.1163 73.2586 87.674 71.9373 87.0716 70.687Z" fill="#0059EA"/>
<path d="M48.8353 46.8377C46.8421 47.2366 44.7341 45.13 44.136 42.1417C43.538 39.1535 44.6731 36.3979 46.6662 35.999C48.6594 35.6001 50.7675 37.7067 51.3655 40.695C51.9635 43.6832 50.8285 46.4388 48.8353 46.8377Z" fill="#0059EA"/>
<path d="M81.0669 40.3874C79.0737 40.7863 76.9656 38.6797 76.3676 35.6915C75.7696 32.7032 76.9046 29.9476 78.8978 29.5487C80.891 29.1499 82.9991 31.2564 83.5971 34.2447C84.1951 37.233 83.06 39.9886 81.0669 40.3874Z" fill="#0059EA"/>
<path d="M81.9119 39.3367C81.8402 39.351 81.7661 39.348 81.6957 39.3281C81.6253 39.3081 81.5608 39.2716 81.5073 39.2218C81.4538 39.1719 81.4129 39.11 81.3881 39.0413C81.3633 38.9725 81.3551 38.8988 81.3644 38.8263C81.7143 36.0868 81.4275 33.3036 80.5263 30.6931C79.6251 28.0826 78.1338 25.7151 76.1682 23.7746C74.2026 21.834 71.8158 20.3728 69.1931 19.5043C66.5705 18.6358 63.7827 18.3836 61.0464 18.7671C58.3101 19.1507 55.699 20.1597 53.416 21.7158C51.1331 23.2719 49.2398 25.3331 47.8832 27.7393C46.5267 30.1455 45.7434 32.8318 45.5944 35.5896C45.4453 38.3473 45.9345 41.1021 47.0238 43.6399C47.0716 43.7521 47.073 43.8786 47.0276 43.9919C46.9822 44.1051 46.8937 44.1957 46.7815 44.2438C46.6694 44.2919 46.5427 44.2936 46.4294 44.2485C46.316 44.2034 46.2252 44.1152 46.1768 44.0032C45.0311 41.3351 44.5165 38.4387 44.673 35.5392C44.8295 32.6397 45.6528 29.8152 47.0789 27.2853C48.5051 24.7553 50.4957 22.588 52.8959 20.9519C55.2962 19.3158 58.0416 18.2549 60.9185 17.8517C63.7955 17.4485 66.7266 17.7138 69.4841 18.6271C72.2415 19.5404 74.751 21.077 76.8174 23.1175C78.8838 25.158 80.4515 27.6474 81.3987 30.3922C82.3458 33.1371 82.6469 36.0634 82.2785 38.9437C82.2662 39.0393 82.2242 39.1286 82.1585 39.1991C82.0927 39.2696 82.0065 39.3178 81.9119 39.3367Z" fill="#0059EA"/>
<path d="M54.9315 28.7093C54.4674 29.708 55.017 30.8187 55.8399 31.435C56.9106 32.237 58.3187 32.0193 59.4942 31.5954C60.8133 31.1198 62.1283 30.1944 63.5908 30.348C64.8374 30.4789 65.8874 31.3751 67.1599 31.3984C68.2884 31.419 69.5184 30.8466 69.667 29.619C69.7383 29.0291 68.8185 28.9665 68.7475 29.5533C68.6514 30.3475 67.5897 30.5445 66.9421 30.4595C65.9039 30.3232 64.9938 29.6685 63.9615 29.4754C62.7444 29.2478 61.5633 29.6969 60.4682 30.1845C59.436 30.6441 58.2642 31.2537 57.0964 31.0148C56.2324 30.8379 55.3864 29.9056 55.803 29.009C56.0532 28.4707 55.1791 28.1765 54.9315 28.7093Z" fill="white"/>
<path d="M111.167 15.2326C109.001 13.3875 105.781 13.7194 103.794 15.7699L103.016 16.572L102.237 15.7699C100.254 13.7194 97.0301 13.3875 94.865 15.2326C92.3838 17.3503 92.2534 21.1511 94.4738 23.4466L102.119 31.3406C102.613 31.8502 103.415 31.8502 103.909 31.3406L111.554 23.4466C113.778 21.1511 113.648 17.3503 111.167 15.2326Z" fill="#0059EA"/>
<path d="M123.465 82.3841C122.22 81.3232 120.369 81.5141 119.226 82.6931L118.779 83.1542L118.331 82.6931C117.191 81.5141 115.337 81.3232 114.092 82.3841C112.665 83.6018 112.59 85.7872 113.867 87.107L118.263 91.6459C118.547 91.939 119.008 91.939 119.292 91.6459L123.688 87.107C124.967 85.7872 124.892 83.6018 123.465 82.3841Z" fill="#0059EA"/>
</svg>
