<svg width="128" height="135" viewBox="0 0 128 135" fill="none" xmlns="http://www.w3.org/2000/svg">
<path d="M56.1655 95.0642C56.3327 95.0642 56.4998 95.0553 56.6661 95.0375L95.0278 90.9414C95.311 90.9111 95.5854 90.8254 95.8355 90.6891C96.0855 90.5528 96.3063 90.3686 96.4852 90.147C96.664 89.9254 96.7975 89.6707 96.8779 89.3975C96.9583 89.1243 96.9842 88.8379 96.9539 88.5547L96.4311 83.6582L96.2652 83.676L96.4311 83.6582C96.3694 83.0866 96.0834 82.5628 95.636 82.2017C95.1886 81.8407 94.6163 81.6718 94.0445 81.7321L55.6828 85.8283C54.5048 85.9542 53.4199 86.5269 52.6512 87.4284C51.8825 88.3299 51.4885 89.4917 51.5504 90.6749C51.6122 91.858 52.1251 92.9724 52.9836 93.7889C53.8421 94.6054 54.9808 95.0618 56.1655 95.0642L56.1655 95.0642Z" fill="#6C63FF"/>
<path d="M75.4085 130.032L116.45 130.032C117.025 130.031 117.577 129.803 117.983 129.396C118.39 128.989 118.618 128.438 118.619 127.863L118.619 122.939C118.618 122.364 118.39 121.813 117.983 121.406C117.577 121 117.025 120.771 116.45 120.77L75.4085 120.77C74.8335 120.771 74.2823 121 73.8757 121.406C73.4692 121.813 73.2405 122.364 73.2399 122.939L73.2399 127.863C73.2405 128.438 73.4692 128.989 73.8757 129.396C74.2823 129.803 74.8335 130.031 75.4085 130.032Z" fill="#6C63FF"/>
<path d="M54.5909 128.336C54.8228 128.336 55.0531 128.298 55.2731 128.225L94.2457 115.357C94.7914 115.176 95.2432 114.786 95.5018 114.273C95.7604 113.759 95.8047 113.164 95.6251 112.618L94.0811 107.942L93.9227 107.994L94.0811 107.942C93.9008 107.396 93.5109 106.944 92.9972 106.685C92.4835 106.426 91.8881 106.382 91.3419 106.563L52.3694 119.431C51.8236 119.612 51.3719 120.002 51.1133 120.515C50.8547 121.029 50.8103 121.624 50.9899 122.17L52.5339 126.846C52.6771 127.279 52.9528 127.656 53.322 127.923C53.6912 128.19 54.1351 128.335 54.5909 128.336L54.5909 128.336Z" fill="#6C63FF"/>
<path d="M106.161 130.106C106.199 130.106 106.238 130.105 106.276 130.103C106.561 130.089 106.84 130.019 107.097 129.896C107.354 129.774 107.584 129.602 107.775 129.39L111.072 125.732C111.457 125.305 111.656 124.742 111.626 124.168C111.597 123.594 111.34 123.055 110.914 122.67L93.4229 106.899C92.9957 106.514 92.4331 106.314 91.8587 106.344C91.2844 106.374 90.7453 106.63 90.3601 107.057L87.0626 110.715C86.6781 111.142 86.4788 111.705 86.5085 112.279C86.5382 112.853 86.7944 113.392 87.2209 113.777L104.712 129.548C105.109 129.908 105.626 130.107 106.161 130.106Z" fill="#6C63FF"/>
<path d="M51.5692 72.8916C42.1718 72.8916 34.5537 65.2735 34.5537 55.8762C34.5537 46.4788 42.1718 38.8607 51.5692 38.8607C60.9665 38.8607 68.5846 46.4788 68.5846 55.8762C68.5846 65.2735 60.9665 72.8916 51.5692 72.8916Z" fill="#6C63FF"/>
<path d="M43.2684 130.11L79.3415 130.11C79.7228 130.112 80.0976 130.012 80.4281 129.822C80.7587 129.632 81.0331 129.358 81.2237 129.028C81.4144 128.698 81.5144 128.323 81.5137 127.942C81.513 127.561 81.4116 127.187 81.2197 126.857L53.4476 78.7546C53.2573 78.4249 52.9835 78.1512 52.6538 77.9608C52.3241 77.7705 51.9501 77.6703 51.5695 77.6703C51.1888 77.6703 50.8148 77.7705 50.4851 77.9608C50.1555 78.1512 49.8817 78.4249 49.6913 78.7546L31.6548 109.995C30.4778 112.033 29.8582 114.346 29.8582 116.7C29.8582 119.054 30.4778 121.366 31.6548 123.405C32.8318 125.444 34.5247 127.136 36.5633 128.313C38.6019 129.49 40.9144 130.11 43.2684 130.11Z" fill="#0059EA"/>
<path d="M65.5943 62.3517C66.6972 62.3211 68.0699 62.2828 69.1274 61.5103C69.4423 61.2709 69.701 60.9654 69.8854 60.6155C70.0699 60.2655 70.1756 59.8795 70.1951 59.4844C70.2143 59.2035 70.1682 58.9221 70.0605 58.662C69.9529 58.4019 69.7865 58.1703 69.5744 57.9851C69.0222 57.5183 68.2157 57.4089 67.3464 57.6644L68.2469 51.0832L67.5858 50.9926L66.5271 58.7296L67.0791 58.4763C67.7192 58.1828 68.5977 58.0335 69.1437 58.4947C69.2778 58.6153 69.3822 58.7653 69.4489 58.9328C69.5156 59.1003 69.5427 59.281 69.5282 59.4607C69.5121 59.7548 69.4327 60.042 69.2957 60.3026C69.1586 60.5633 68.9669 60.7914 68.7338 60.9714C67.9108 61.5725 66.8166 61.6501 65.5757 61.6848L65.5943 62.3517Z" fill="white"/>
<path d="M60.1729 51.6506L63.7667 51.6506L63.7667 52.3179L60.1729 52.3179L60.1729 51.6506Z" fill="white"/>
<path d="M41.4809 35.8087C41.0083 33.8775 40.1324 32.0681 38.9107 30.4996C37.689 28.9311 36.1492 27.6388 34.3925 26.7078C32.5909 25.7819 30.6056 25.2689 28.5809 25.2061C26.5563 25.1433 24.543 25.5322 22.6874 26.3446C20.7871 27.1586 19.0994 28.3987 17.7548 29.9689C16.4101 31.5392 15.4445 33.3976 14.9326 35.4005C14.4055 37.4155 14.3325 39.5224 14.719 41.569C15.1934 43.7367 16.1135 45.782 17.4209 47.575C18.739 49.4837 20.2885 51.2159 21.7112 53.0447C23.1393 54.8772 24.4397 56.8057 25.6034 58.8165C29.1092 64.8751 31.3322 71.5897 32.1341 78.5434C32.4055 80.6436 32.4569 82.7664 32.2874 84.8773C31.9042 88.9764 30.3163 92.9914 26.6714 95.2218C24.7335 96.4076 22.4972 97.02 20.2847 97.4484C17.8016 97.9745 15.2602 98.1731 12.7255 98.0391C8.44051 97.7346 4.15256 95.9464 1.66402 92.3049C1.11319 91.494 0.681939 90.608 0.383542 89.6742C0.185342 89.0597 1.15146 88.7966 1.34871 89.4081C2.66679 93.4944 6.66689 96.0132 10.7153 96.7812C13.2364 97.2036 15.8105 97.2011 18.3308 96.7738C20.6203 96.4319 22.9797 95.9587 25.0781 94.9484C26.9846 94.0592 28.5661 92.5972 29.6019 90.7661C30.5384 88.9984 31.1053 87.0586 31.2682 85.0649C31.7142 80.6996 30.9879 76.1804 29.9003 71.9582C28.7365 67.4392 26.9514 63.1036 24.5959 59.0754C23.4194 57.0626 22.1022 55.1354 20.6543 53.3081C19.2205 51.5007 17.691 49.7626 16.398 47.8479C15.1213 46.0418 14.222 43.9967 13.7538 41.8351C13.3554 39.761 13.3924 37.6267 13.8625 35.5677C14.3159 33.5356 15.2034 31.6256 16.464 29.9686C17.7246 28.3115 19.3286 26.9466 21.166 25.9675C24.7719 24.0653 29.1652 23.6099 33.0223 25.0115C36.7653 26.3927 39.8119 29.1953 41.5002 32.8101C41.9061 33.687 42.223 34.6024 42.446 35.5426C42.5934 36.1691 41.6286 36.4364 41.4809 35.8087L41.4809 35.8087Z" fill="#0059EA"/>
<path d="M38.2279 36.6225C37.6005 34.8342 36.3361 33.3399 34.6763 32.4252C33.0165 31.5105 31.0779 31.2396 29.2309 31.6643C28.6043 31.8108 28.3369 30.846 28.9648 30.6991C31.0687 30.183 33.2899 30.4787 35.1855 31.5272C37.0811 32.5757 38.5121 34.3 39.1931 36.3564C39.403 36.9669 38.4365 37.229 38.2279 36.6225Z" fill="#0059EA"/>
<path d="M39.7648 41.3504C40.0131 41.3503 40.2588 41.2996 40.4868 41.2013L45.0846 39.2251C45.306 39.1299 45.5065 38.9921 45.6747 38.8195C45.8428 38.6468 45.9753 38.4428 46.0646 38.2189C46.1538 37.9951 46.1982 37.7559 46.195 37.5149C46.1918 37.2739 46.1412 37.036 46.046 36.8146C45.9509 36.5932 45.813 36.3927 45.6404 36.2245C45.4678 36.0564 45.2637 35.9239 45.0399 35.8347C44.816 35.7454 44.5768 35.7011 44.3358 35.7043C44.0949 35.7074 43.8569 35.7581 43.6355 35.8532L39.0376 37.8295C38.6492 37.9964 38.3304 38.2922 38.135 38.667C37.9396 39.0418 37.8796 39.4726 37.9651 39.8865C38.0506 40.3005 38.2764 40.6722 38.6043 40.9389C38.9322 41.2056 39.3421 41.351 39.7648 41.3504Z" fill="#0059EA"/>
<path d="M46.4983 50.0087L48.5832 36.4997C48.6704 35.9349 49.5323 35.5991 50.5083 35.7497L54.5575 36.3746C55.5335 36.5253 56.2542 37.1053 56.1671 37.6701L54.1708 50.6049C55.411 51.5366 56.3155 52.8455 56.7484 54.3351C57.1812 55.8247 57.1191 57.4146 56.5713 58.8658C56.0235 60.3171 55.0196 61.5515 53.7105 62.3836C52.4013 63.2156 50.8575 63.6005 49.3109 63.4803C47.7644 63.3602 46.2986 62.7415 45.1336 61.7171C43.9687 60.6928 43.1676 59.3182 42.8506 57.7997C42.5335 56.2813 42.7177 54.7009 43.3755 53.2961C44.0332 51.8912 45.129 50.7377 46.4983 50.0087Z" fill="#0059EA"/>
<path d="M49.8726 59.4939C48.1295 59.4939 46.7164 58.0808 46.7164 56.3377C46.7164 54.5945 48.1295 53.1815 49.8726 53.1815C51.6157 53.1815 53.0288 54.5945 53.0288 56.3377C53.0288 58.0808 51.6157 59.4939 49.8726 59.4939Z" fill="#FFB199"/>
<path d="M104.711 94.9933C105.669 94.9955 106.596 94.6522 107.322 94.0263L126.284 77.6443C126.681 77.301 127.007 76.8829 127.243 76.4137C127.479 75.9446 127.62 75.4336 127.658 74.91C127.696 74.3863 127.631 73.8603 127.466 73.3619C127.3 72.8635 127.039 72.4025 126.696 72.0052C126.632 71.9317 126.566 71.8606 126.497 71.7919L106.853 52.1475C106.482 51.7762 106.041 51.4817 105.556 51.2807C105.071 51.0798 104.551 50.9763 104.026 50.9763C103.501 50.9763 102.981 51.0798 102.496 51.2807C102.011 51.4817 101.57 51.7762 101.199 52.1475L83.5269 69.8193C82.7783 70.5697 82.3578 71.5864 82.3578 72.6463C82.3578 73.7063 82.7783 74.723 83.5269 75.4734L101.881 93.8279C102.253 94.1987 102.695 94.4925 103.18 94.6925C103.666 94.8925 104.186 94.9947 104.711 94.9933ZM126.261 72.0278L126.026 72.2637C126.083 72.3209 126.138 72.3804 126.191 72.4414C126.477 72.7724 126.695 73.1565 126.832 73.5717C126.97 73.9869 127.024 74.4251 126.992 74.8614C126.96 75.2976 126.843 75.7233 126.647 76.1141C126.45 76.505 126.179 76.8533 125.848 77.1392L106.886 93.5213C106.248 94.0685 105.427 94.3554 104.587 94.3247C103.747 94.2941 102.95 93.9483 102.353 93.3561L83.9987 75.0015C83.3751 74.3764 83.0248 73.5294 83.0248 72.6463C83.0248 71.7632 83.3751 70.9162 83.9987 70.2911L101.671 52.6193C101.98 52.31 102.347 52.0646 102.751 51.8972C103.155 51.7298 103.588 51.6436 104.026 51.6436C104.463 51.6436 104.896 51.7298 105.3 51.8972C105.705 52.0646 106.072 52.31 106.381 52.6193L126.026 72.2637L126.261 72.0278Z" fill="#0059EA"/>
<path d="M105.85 89.1217L121.191 75.1598L103.525 57.4943L88.8738 72.1456L105.85 89.1217ZM120.224 75.137L105.871 88.1996L89.8175 72.1456L103.525 58.4379L120.224 75.137Z" fill="#0059EA"/>
<path d="M104.693 81.3576C100.158 81.3576 96.4819 77.6814 96.4819 73.1465C96.4819 68.6117 100.158 64.9354 104.693 64.9354C109.228 64.9354 112.904 68.6117 112.904 73.1465C112.904 77.6814 109.228 81.3576 104.693 81.3576Z" fill="#CCCCCC" fill-opacity="0.5"/>
<path d="M100.657 71.5148C99.6782 72.4349 99.6264 75.747 101.122 77.3382C102.617 78.9294 105.093 78.1973 106.072 77.2772C107.051 76.3571 106.163 75.5975 104.668 74.0063C103.172 72.4151 101.637 70.5947 100.657 71.5148Z" fill="white" fill-opacity="0.5"/>
<path d="M108.993 75.7137C107.649 75.7137 106.56 74.6245 106.56 73.2808C106.56 71.9372 107.649 70.8479 108.993 70.8479C110.336 70.8479 111.425 71.9372 111.425 73.2808C111.425 74.6245 110.336 75.7137 108.993 75.7137Z" fill="white" fill-opacity="0.5"/>
<path d="M104.62 71.0591C103.277 71.0591 102.188 69.9698 102.188 68.6262C102.188 67.2825 103.277 66.1933 104.62 66.1933C105.964 66.1933 107.053 67.2825 107.053 68.6262C107.053 69.9698 105.964 71.0591 104.62 71.0591Z" fill="white" fill-opacity="0.5"/>
<path d="M49.5722 134.024C50.1163 134.023 50.6403 133.818 51.04 133.449C51.4398 133.079 51.6861 132.573 51.7301 132.031L54.8522 93.5778C54.9014 92.9717 54.8307 92.3618 54.6442 91.783C54.4578 91.2042 54.1591 90.6677 53.7653 90.2043C53.3715 89.7409 52.8903 89.3596 52.3491 89.0822C51.808 88.8048 51.2175 88.6367 50.6114 88.5875C50.0052 88.5382 49.3953 88.6089 48.8165 88.7954C48.2377 88.9819 47.7013 89.2805 47.2379 89.6743C46.7745 90.0681 46.3932 90.5493 46.1157 91.0905C45.8383 91.6317 45.6702 92.2222 45.621 92.8283L42.499 131.282C42.4532 131.855 42.6365 132.423 43.0088 132.861C43.3811 133.299 43.9119 133.571 44.4849 133.619L49.3931 134.017C49.453 134.022 49.5128 134.024 49.5722 134.024Z" fill="#6C63FF"/>
<path d="M76.9846 31.1031L77.0864 30.6925L76.7877 30.3929C73.6919 27.2884 71.8593 23.3721 71.8593 19.1196C71.8593 9.29584 81.7194 1.08618 94.2274 1.08618C106.735 1.08618 116.595 9.29584 116.595 19.1196C116.595 28.9434 106.735 37.1531 94.2274 37.1531C90.8523 37.1531 87.6636 36.5291 84.7926 35.4492L84.3942 35.2993L84.0612 35.5646C81.911 37.2778 77.6098 40.0223 71.8958 40.0427C72.1293 39.789 73.0109 38.7946 73.9942 37.3625C75.1075 35.741 76.3892 33.5037 76.9846 31.1031ZM71.8518 40.09C71.8512 40.0907 71.8506 40.0915 71.8499 40.0922L71.8498 40.0921C71.8505 40.0914 71.8511 40.0907 71.8518 40.09ZM71.8317 40.0737L71.831 40.074L71.8317 40.0737Z" fill="#F0F0F0" fill-opacity="0.5" stroke="#0059EA" stroke-width="1.5"/>
<path d="M88.3165 16.8624H85.2056C84.6901 16.8624 84.2723 17.2802 84.2723 17.7957V27.1284C84.2723 27.6439 84.6901 28.0617 85.2056 28.0617H88.3165C88.8319 28.0617 89.2498 27.6439 89.2498 27.1284V17.7957C89.2498 17.2802 88.8319 16.8624 88.3165 16.8624ZM86.761 26.5062C86.2456 26.5062 85.8277 26.0884 85.8277 25.573C85.8277 25.0575 86.2456 24.6397 86.761 24.6397C87.2765 24.6397 87.6943 25.0575 87.6943 25.573C87.6943 26.0884 87.2765 26.5062 86.761 26.5062ZM99.2047 11.3192C99.2047 12.9686 98.1948 13.8938 97.9107 14.9958H101.866C103.165 14.9958 104.176 16.0748 104.182 17.2551C104.185 17.9526 103.889 18.7035 103.426 19.1682L103.422 19.1724C103.804 20.0799 103.742 21.3515 103.06 22.2627C103.398 23.2697 103.057 24.5066 102.423 25.1697C102.59 25.8541 102.51 26.4365 102.184 26.9053C101.39 28.0456 99.4231 28.0617 97.7596 28.0617L97.649 28.0617C95.7713 28.061 94.2345 27.3773 92.9997 26.828C92.3792 26.5519 91.5679 26.2102 90.9523 26.1989C90.698 26.1942 90.4941 25.9867 90.4941 25.7323V17.4195C90.4941 17.2951 90.544 17.1757 90.6325 17.0882C92.1729 15.566 92.8353 13.9544 94.0979 12.6897C94.6736 12.1129 94.883 11.2417 95.0854 10.3992C95.2583 9.67976 95.62 8.15179 96.4049 8.15179C97.3382 8.15179 99.2047 8.46289 99.2047 11.3192Z" fill="#0059EA"/>
</svg>
