<svg width="123" height="144" viewBox="0 0 123 144" fill="none" xmlns="http://www.w3.org/2000/svg">
<path d="M77.8983 39.0946C77.8982 40.7495 77.7927 42.4027 77.5825 44.0441H1.37855C1.16832 42.4027 1.06284 40.7495 1.06276 39.0946C1.05843 34.0467 2.04894 29.0475 3.97767 24.3826C5.90641 19.7178 8.73555 15.4787 12.3034 11.9078C15.8713 8.33691 20.1079 5.50413 24.7711 3.5714C29.4343 1.63866 34.4327 0.64386 39.4805 0.64386C44.5284 0.64386 49.5268 1.63866 54.19 3.5714C58.8532 5.50413 63.0898 8.33691 66.6577 11.9078C70.2255 15.4787 73.0546 19.7178 74.9834 24.3826C76.9121 29.0475 77.9026 34.0467 77.8983 39.0946Z" fill="#F0F0F0"/>
<path d="M39.4806 77.7479C20.0943 77.7479 3.61349 63.2713 1.14488 44.0741C0.933856 42.4226 0.827737 40.7594 0.827163 39.0945C0.822818 34.0157 1.81941 28.9858 3.75999 24.2923C5.70056 19.5988 8.54706 15.3338 12.1368 11.741C15.7265 8.14818 19.9891 5.29803 24.6809 3.35344C29.3727 1.40886 34.4018 0.407959 39.4806 0.407959C44.5594 0.407959 49.5885 1.40886 54.2803 3.35344C58.9721 5.29803 63.2347 8.14818 66.8244 11.741C70.4142 15.3338 73.2607 19.5988 75.2013 24.2923C77.1418 28.9858 78.1384 34.0157 78.1341 39.0945C78.1335 40.7594 78.0274 42.4225 77.8164 44.074C75.3477 63.2713 58.867 77.7479 39.4806 77.7479ZM39.4806 0.912422C21.6704 0.912422 5.9839 13.5222 2.18167 30.8957C1.59354 33.589 1.29745 36.3378 1.29855 39.0945C1.29912 40.7393 1.40397 42.3825 1.61244 44.0141C4.0509 62.9767 20.3307 77.2766 39.4806 77.2766C58.6306 77.2766 74.9104 62.9767 77.3488 44.014C77.5573 42.3824 77.6621 40.7393 77.6627 39.0945C77.6638 36.3378 77.3677 33.589 76.7796 30.8957C72.9773 13.5222 57.2909 0.912422 39.4806 0.912422Z" fill="#0059EA"/>
<path d="M63.7401 51.2699H15.221C14.9852 51.2699 14.759 51.3635 14.5923 51.5303C14.4256 51.697 14.3319 51.9231 14.3319 52.1589C14.3319 52.3947 14.4256 52.6209 14.5923 52.7876C14.759 52.9543 14.9852 53.048 15.221 53.048H63.7401C63.9756 53.0476 64.2014 52.9538 64.3678 52.7871C64.5342 52.6204 64.6277 52.3945 64.6277 52.1589C64.6277 51.9234 64.5342 51.6975 64.3678 51.5308C64.2014 51.3641 63.9756 51.2703 63.7401 51.2699Z" fill="#CACACA"/>
<path d="M47.1437 51.2699V53.048H15.2204C14.9849 53.0476 14.7591 52.9538 14.5927 52.7871C14.4263 52.6204 14.3328 52.3945 14.3328 52.1589C14.3328 51.9234 14.4263 51.6975 14.5927 51.5308C14.7591 51.3641 14.9849 51.2703 15.2204 51.2699H47.1437Z" fill="#6C63FF"/>
<path d="M47.1448 53.9372C48.1268 53.9372 48.9229 53.1411 48.9229 52.1591C48.9229 51.177 48.1268 50.381 47.1448 50.381C46.1627 50.381 45.3666 51.177 45.3666 52.1591C45.3666 53.1411 46.1627 53.9372 47.1448 53.9372Z" fill="#6C63FF"/>
<path d="M39.4791 68.962C38.5999 68.962 37.7404 68.7013 37.0093 68.2128C36.2782 67.7243 35.7084 67.03 35.372 66.2177C35.0355 65.4054 34.9475 64.5115 35.119 63.6492C35.2905 62.7868 35.7139 61.9947 36.3356 61.373C36.9574 60.7513 37.7495 60.3279 38.6118 60.1563C39.4742 59.9848 40.368 60.0728 41.1803 60.4093C41.9927 60.7458 42.687 61.3156 43.1754 62.0467C43.6639 62.7777 43.9246 63.6372 43.9246 64.5165C43.9233 65.6951 43.4545 66.8251 42.6211 67.6585C41.7877 68.4919 40.6577 68.9607 39.4791 68.962ZM39.4791 60.4129C38.6675 60.4129 37.8741 60.6536 37.1993 61.1045C36.5245 61.5554 35.9985 62.1963 35.6879 62.9461C35.3773 63.6959 35.296 64.521 35.4544 65.317C35.6127 66.113 36.0035 66.8442 36.5774 67.4181C37.1513 67.992 37.8825 68.3828 38.6785 68.5412C39.4746 68.6995 40.2997 68.6183 41.0495 68.3077C41.7993 67.9971 42.4402 67.4711 42.8911 66.7963C43.342 66.1215 43.5827 65.3281 43.5827 64.5165C43.5814 63.4285 43.1487 62.3855 42.3794 61.6162C41.6101 60.8469 40.5671 60.4141 39.4791 60.4129Z" fill="#6C63FF"/>
<path d="M38.8932 66.9102C38.8479 66.9102 38.8044 66.8922 38.7723 66.8602C38.7402 66.8281 38.7222 66.7846 38.7222 66.7393V62.2937C38.7222 62.2713 38.7266 62.249 38.7352 62.2283C38.7438 62.2076 38.7564 62.1887 38.7723 62.1728C38.7882 62.1569 38.807 62.1443 38.8278 62.1358C38.8485 62.1272 38.8708 62.1227 38.8932 62.1227C38.9157 62.1227 38.9379 62.1272 38.9586 62.1358C38.9794 62.1443 38.9982 62.1569 39.0141 62.1728C39.03 62.1887 39.0426 62.2076 39.0512 62.2283C39.0598 62.249 39.0642 62.2713 39.0642 62.2937V66.7393C39.0642 66.7846 39.0462 66.8281 39.0141 66.8602C38.982 66.8922 38.9386 66.9102 38.8932 66.9102Z" fill="#6C63FF"/>
<path d="M40.067 66.9102C40.0217 66.9102 39.9782 66.8922 39.9461 66.8602C39.9141 66.8281 39.8961 66.7846 39.8961 66.7393V62.2937C39.8961 62.2713 39.9005 62.249 39.9091 62.2283C39.9177 62.2076 39.9303 62.1887 39.9461 62.1728C39.962 62.1569 39.9809 62.1443 40.0016 62.1358C40.0224 62.1272 40.0446 62.1227 40.067 62.1227C40.0895 62.1227 40.1117 62.1272 40.1325 62.1358C40.1532 62.1443 40.1721 62.1569 40.1879 62.1728C40.2038 62.1887 40.2164 62.2076 40.225 62.2283C40.2336 62.249 40.238 62.2713 40.238 62.2937V66.7393C40.238 66.7846 40.22 66.8281 40.1879 66.8602C40.1559 66.8922 40.1124 66.9102 40.067 66.9102Z" fill="#6C63FF"/>
<path d="M19.1185 64.5165C19.1185 63.6372 19.3793 62.7777 19.8677 62.0467C20.3562 61.3156 21.0505 60.7458 21.8628 60.4093C22.6752 60.0728 23.569 59.9848 24.4313 60.1563C25.2937 60.3279 26.0858 60.7513 26.7075 61.373C27.3293 61.9947 27.7527 62.7868 27.9242 63.6492C28.0957 64.5115 28.0077 65.4054 27.6712 66.2177C27.3347 67.03 26.7649 67.7243 26.0339 68.2128C25.3028 68.7013 24.4433 68.962 23.5641 68.962C22.3854 68.9607 21.2555 68.4919 20.4221 67.6585C19.5887 66.8251 19.1199 65.6951 19.1185 64.5165ZM19.4605 64.5165C19.4605 65.3281 19.7012 66.1215 20.1521 66.7963C20.603 67.4711 21.2439 67.9971 21.9937 68.3077C22.7435 68.6183 23.5686 68.6995 24.3646 68.5412C25.1607 68.3828 25.8918 67.992 26.4657 67.4181C27.0396 66.8442 27.4305 66.113 27.5888 65.317C27.7471 64.521 27.6659 63.6959 27.3553 62.9461C27.0447 62.1963 26.5187 61.5554 25.8439 61.1045C25.1691 60.6536 24.3757 60.4129 23.5641 60.4129C22.4761 60.4141 21.4331 60.8469 20.6638 61.6162C19.8945 62.3855 19.4617 63.4285 19.4605 64.5165Z" fill="#0059EA"/>
<path d="M25.4836 66.0133C25.5149 66.0133 25.5454 66.003 25.5702 65.984C25.5951 65.9649 25.6129 65.9382 25.6211 65.908C25.6292 65.8777 25.6271 65.8456 25.6151 65.8167C25.6031 65.7878 25.5819 65.7636 25.5548 65.7479L23.422 64.5166L25.5548 63.2852C25.5873 63.2662 25.611 63.2352 25.6207 63.1988C25.6304 63.1625 25.6253 63.1238 25.6064 63.0912C25.5876 63.0586 25.5567 63.0348 25.5204 63.025C25.484 63.0152 25.4453 63.0201 25.4126 63.0388L23.0665 64.3934C23.0449 64.4059 23.0269 64.4238 23.0145 64.4454C23.002 64.4671 22.9954 64.4916 22.9954 64.5166C22.9954 64.5415 23.002 64.566 23.0145 64.5877C23.0269 64.6093 23.0449 64.6272 23.0665 64.6397L25.4126 65.9943C25.4342 66.0067 25.4587 66.0133 25.4836 66.0133Z" fill="#0059EA"/>
<path d="M22.3384 66.5069C22.3761 66.5069 22.4123 66.4919 22.439 66.4652C22.4656 66.4386 22.4806 66.4024 22.4806 66.3647V62.6678C22.4807 62.649 22.4771 62.6305 22.47 62.6132C22.4628 62.5959 22.4524 62.5801 22.4392 62.5668C22.426 62.5536 22.4103 62.5431 22.393 62.5359C22.3757 62.5287 22.3571 62.525 22.3384 62.525C22.3197 62.525 22.3012 62.5287 22.2839 62.5359C22.2666 62.5431 22.2509 62.5536 22.2377 62.5668C22.2245 62.5801 22.214 62.5959 22.2069 62.6132C22.1998 62.6305 22.1962 62.649 22.1962 62.6678V66.3647C22.1962 66.4024 22.2112 66.4386 22.2379 66.4652C22.2645 66.4919 22.3007 66.5069 22.3384 66.5069Z" fill="#0059EA"/>
<path d="M55.3961 68.962C54.5169 68.962 53.6574 68.7013 52.9263 68.2128C52.1952 67.7243 51.6254 67.03 51.289 66.2177C50.9525 65.4054 50.8645 64.5115 51.036 63.6492C51.2075 62.7868 51.6309 61.9947 52.2526 61.373C52.8744 60.7513 53.6665 60.3279 54.5288 60.1563C55.3912 59.9848 56.285 60.0728 57.0973 60.4093C57.9097 60.7458 58.6039 61.3156 59.0924 62.0467C59.5809 62.7777 59.8416 63.6372 59.8416 64.5165C59.8403 65.6951 59.3715 66.8251 58.5381 67.6585C57.7047 68.4919 56.5747 68.9607 55.3961 68.962ZM55.3961 60.4129C54.5845 60.4129 53.7911 60.6536 53.1163 61.1045C52.4414 61.5554 51.9155 62.1963 51.6049 62.9461C51.2943 63.6959 51.213 64.521 51.3714 65.317C51.5297 66.113 51.9205 66.8442 52.4944 67.4181C53.0683 67.992 53.7995 68.3828 54.5955 68.5412C55.3915 68.6995 56.2166 68.6183 56.9665 68.3077C57.7163 67.9971 58.3572 67.4711 58.8081 66.7963C59.259 66.1215 59.4997 65.3281 59.4997 64.5165C59.4984 63.4285 59.0657 62.3855 58.2964 61.6162C57.5271 60.8469 56.4841 60.4141 55.3961 60.4129Z" fill="#0059EA"/>
<path d="M53.4761 66.0133C53.4448 66.0133 53.4144 66.003 53.3895 65.984C53.3647 65.9649 53.3468 65.9382 53.3387 65.908C53.3305 65.8777 53.3326 65.8456 53.3446 65.8167C53.3566 65.7878 53.3778 65.7636 53.4049 65.7479L55.5377 64.5166L53.4049 63.2852C53.3724 63.2662 53.3487 63.2352 53.339 63.1988C53.3294 63.1625 53.3345 63.1238 53.3533 63.0912C53.3721 63.0586 53.4031 63.0348 53.4394 63.025C53.4757 63.0152 53.5144 63.0201 53.5471 63.0388L55.8932 64.3934C55.9148 64.4059 55.9328 64.4238 55.9453 64.4454C55.9577 64.4671 55.9643 64.4916 55.9643 64.5166C55.9643 64.5415 55.9577 64.566 55.9453 64.5877C55.9328 64.6093 55.9148 64.6272 55.8932 64.6397L53.5471 65.9943C53.5255 66.0067 53.501 66.0133 53.4761 66.0133Z" fill="#0059EA"/>
<path d="M56.6209 66.5069C56.5832 66.5069 56.5471 66.4919 56.5204 66.4652C56.4937 66.4386 56.4788 66.4024 56.4788 66.3647V62.6678C56.4787 62.649 56.4823 62.6305 56.4894 62.6132C56.4965 62.5959 56.507 62.5801 56.5202 62.5668C56.5334 62.5536 56.5491 62.5431 56.5664 62.5359C56.5837 62.5287 56.6022 62.525 56.6209 62.525C56.6397 62.525 56.6582 62.5287 56.6755 62.5359C56.6928 62.5431 56.7085 62.5536 56.7217 62.5668C56.7349 62.5801 56.7454 62.5959 56.7525 62.6132C56.7596 62.6305 56.7632 62.649 56.7631 62.6678V66.3647C56.7631 66.4024 56.7482 66.4386 56.7215 66.4652C56.6948 66.4919 56.6587 66.5069 56.6209 66.5069Z" fill="#0059EA"/>
<path d="M48.3056 35.4412H36.7845C36.031 35.4404 35.3086 35.1407 34.7757 34.6078C34.2429 34.075 33.9432 33.3526 33.9423 32.599V21.078C33.9432 20.3244 34.2429 19.602 34.7757 19.0692C35.3086 18.5363 36.031 18.2366 36.7845 18.2357H48.3056C49.0591 18.2366 49.7816 18.5363 50.3144 19.0692C50.8473 19.602 51.147 20.3244 51.1478 21.078V32.599C51.147 33.3526 50.8473 34.075 50.3144 34.6078C49.7816 35.1407 49.0591 35.4404 48.3056 35.4412Z" fill="white"/>
<path d="M43.828 32.0237H32.3069C31.5221 32.0228 30.7698 31.7107 30.2148 31.1557C29.6599 30.6008 29.3477 29.8484 29.3469 29.0636V17.5426C29.3477 16.7578 29.6599 16.0054 30.2148 15.4504C30.7698 14.8955 31.5221 14.5834 32.3069 14.5825H43.828C44.6128 14.5834 45.3652 14.8955 45.9201 15.4504C46.475 16.0054 46.7872 16.7578 46.7881 17.5426V29.0636C46.7872 29.8484 46.475 30.6008 45.9201 31.1557C45.3652 31.7107 44.6128 32.0228 43.828 32.0237ZM32.3069 15.0539C31.6471 15.0546 31.0146 15.3171 30.548 15.7836C30.0814 16.2502 29.819 16.8828 29.8182 17.5426V29.0636C29.819 29.7234 30.0814 30.356 30.548 30.8226C31.0146 31.2891 31.6471 31.5515 32.3069 31.5523H43.828C44.4878 31.5515 45.1204 31.2891 45.5869 30.8226C46.0535 30.356 46.3159 29.7234 46.3167 29.0636V17.5426C46.3159 16.8828 46.0535 16.2502 45.5869 15.7836C45.1204 15.3171 44.4878 15.0546 43.828 15.0539H32.3069Z" fill="white"/>
<path d="M59.4881 109.24C59.2477 109.239 59.0091 109.197 58.7831 109.115L54.5355 107.581L54.5372 107.577C54.0589 107.363 53.679 106.977 53.4736 106.496C53.2682 106.014 53.2526 105.472 53.4299 104.98L65.0527 72.792C65.4226 71.768 66.171 70.9247 67.1437 70.4357C68.1165 69.9466 69.2397 69.849 70.2823 70.1629C71.3248 70.4767 72.2075 71.1782 72.7486 72.123C73.2897 73.0678 73.4481 74.1841 73.1912 75.2421C73.1547 75.3913 73.1102 75.5383 73.058 75.6827L61.4352 107.87C61.2903 108.271 61.0257 108.617 60.6774 108.862C60.3291 109.107 59.9139 109.239 59.4881 109.24H59.4881Z" fill="#6C63FF"/>
<path d="M86.9846 143.671H82.6166C82.0673 143.671 81.5408 143.452 81.1524 143.064C80.764 142.676 80.5455 142.149 80.5449 141.6V105.194C80.5455 104.645 80.764 104.118 81.1524 103.73C81.5408 103.341 82.0673 103.123 82.6166 103.122H86.9846C87.5339 103.123 88.0604 103.341 88.4488 103.73C88.8372 104.118 89.0557 104.645 89.0563 105.194V141.6C89.0557 142.149 88.8372 142.676 88.4488 143.064C88.0604 143.452 87.5339 143.671 86.9846 143.671Z" fill="#6C63FF"/>
<path d="M77.1607 143.671H72.7926C72.2433 143.671 71.7168 143.452 71.3284 143.064C70.94 142.676 70.7216 142.149 70.7209 141.6V105.194C70.7216 104.645 70.94 104.118 71.3284 103.73C71.7168 103.341 72.2433 103.123 72.7926 103.122H77.1607C77.7099 103.123 78.2365 103.341 78.6249 103.73C79.0133 104.118 79.2317 104.645 79.2323 105.194V141.6C79.2317 142.149 79.0133 142.676 78.6249 143.064C78.2365 143.452 77.7099 143.671 77.1607 143.671Z" fill="#6C63FF"/>
<path d="M79.7588 67.8637C88.0946 67.8637 94.8522 61.1062 94.8522 52.7703C94.8522 44.4345 88.0946 37.6769 79.7588 37.6769C71.4229 37.6769 64.6654 44.4345 64.6654 52.7703C64.6654 61.1062 71.4229 67.8637 79.7588 67.8637Z" fill="#6C63FF"/>
<path d="M81.5223 59.1064C80.544 59.0792 79.3263 59.0453 78.3882 58.36C78.1089 58.1476 77.8794 57.8767 77.7158 57.5662C77.5522 57.2557 77.4585 56.9133 77.4412 56.5628C77.4242 56.3137 77.4651 56.064 77.5606 55.8334C77.6561 55.6027 77.8037 55.3972 77.9918 55.233C78.4817 54.819 79.1971 54.7219 79.9681 54.9485L79.1694 49.1107L79.7558 49.0304L80.6949 55.8934L80.2052 55.6687C79.6374 55.4083 78.8581 55.2758 78.3738 55.6851C78.2549 55.792 78.1623 55.925 78.1031 56.0736C78.0439 56.2223 78.0199 56.3825 78.0327 56.542C78.0471 56.8028 78.1174 57.0575 78.239 57.2888C78.3606 57.52 78.5306 57.7223 78.7374 57.882C79.4674 58.4152 80.438 58.484 81.5388 58.5148L81.5223 59.1064Z" fill="white"/>
<path d="M76.269 49.6141H73.0811V50.206H76.269V49.6141Z" fill="white"/>
<path d="M86.3331 49.6141H83.1453V50.206H86.3331V49.6141Z" fill="white"/>
<path d="M100.131 108.986C99.7161 108.985 99.3106 108.86 98.9671 108.626C98.6236 108.393 98.3578 108.062 98.2041 107.676L85.6055 75.8574C85.3997 75.3378 85.2983 74.7828 85.3071 74.224C85.3159 73.6652 85.4346 73.1136 85.6565 72.6007C85.8785 72.0878 86.1993 71.6236 86.6006 71.2347C87.0019 70.8458 87.4759 70.5397 87.9955 70.3339C88.5151 70.1282 89.0702 70.0268 89.629 70.0356C90.1877 70.0443 90.7393 70.1631 91.2522 70.385C91.7652 70.6069 92.2293 70.9277 92.6182 71.329C93.0072 71.7304 93.3132 72.2043 93.519 72.724L106.117 104.542C106.226 104.814 106.275 105.105 106.262 105.397C106.244 105.796 106.111 106.182 105.879 106.507C105.647 106.832 105.326 107.084 104.954 107.231L100.893 108.839C100.651 108.936 100.392 108.985 100.131 108.986Z" fill="#6C63FF"/>
<path d="M90.8464 95.3114L94.9889 76.5687C94.9889 74.8017 94.287 73.1071 93.0376 71.8577C91.7881 70.6083 90.0936 69.9063 88.3266 69.9063H70.2807C68.5137 69.9063 66.8191 70.6083 65.5697 71.8577C64.3203 73.1071 63.6184 74.8017 63.6183 76.5687L68.6069 95.169C65.7375 95.5436 63.6183 96.8582 63.6183 98.4226L70.7211 111.782L89.0699 111.931L94.9889 98.4226C94.9889 97.0165 93.2762 95.8127 90.8464 95.3114Z" fill="#0059EA"/>
<path d="M96.4469 47.3412C95.6956 43.5165 93.6429 40.0701 90.6379 37.5876C87.6329 35.1051 83.861 33.7399 79.9633 33.7239C76.0655 33.7079 72.2825 35.0421 69.2572 37.4998C66.2319 39.9575 64.1511 43.3869 63.3683 47.2053C62.0332 47.748 60.9283 48.738 60.2427 50.0056C59.5571 51.2733 59.3334 52.7399 59.6101 54.1543C59.8867 55.5687 60.6464 56.843 61.7591 57.7589C62.8718 58.6749 64.2682 59.1756 65.7094 59.1753V46.7455C65.3601 46.7476 65.0115 46.7791 64.6674 46.8396C65.5072 43.4301 67.467 40.401 70.2328 38.2376C72.9987 36.0741 76.4106 34.9015 79.922 34.9075C83.4335 34.9136 86.8413 36.0979 89.5997 38.2707C92.3582 40.4436 94.3075 43.4794 95.1357 46.8918C94.6987 46.7953 94.2526 46.7463 93.8051 46.7455V59.1753C95.2179 59.1762 96.5887 58.6954 97.6915 57.8122C98.7942 56.9291 99.563 55.6963 99.8708 54.3175C100.179 52.9386 100.007 51.496 99.3847 50.2277C98.7622 48.9594 97.726 47.9412 96.4469 47.3412Z" fill="#0059EA"/>
<path d="M87.638 45.8449C84.9256 44.4985 81.8838 43.9585 78.8737 44.2888C77.2328 44.4556 75.5988 44.7127 73.9647 44.9347C72.5952 45.1208 71.0392 45.367 69.7856 44.6232C67.6571 43.3603 67.2784 40.2956 67.7314 38.0874C67.9684 36.8764 68.4635 35.7307 69.1831 34.7283C69.9026 33.7258 70.8297 32.8901 71.9012 32.2781C73.1753 31.592 74.6002 31.2341 76.0473 31.237C77.4944 31.2398 78.9179 31.6032 80.1893 32.2943C80.2917 32.3503 80.4117 32.365 80.5246 32.3354C80.6375 32.3057 80.7349 32.2341 80.7967 32.1351C82.3837 29.9891 84.535 28.1708 87.0656 27.2561C89.4043 26.4441 91.9274 26.3228 94.3332 26.9066C96.7763 27.4795 99.0567 28.6014 101.001 30.1872C103.026 31.8793 104.676 33.9748 105.846 36.3401C108.455 41.4542 109.059 47.3239 108.863 52.9861C108.749 56.2813 108.38 59.5604 108.016 62.8352C107.833 64.4747 107.651 66.1144 107.502 67.7573C107.33 69.1633 107.328 70.5847 107.494 71.9913C107.665 73.3142 108.229 74.5553 109.114 75.5539C109.959 76.443 111.023 77.0946 112.199 77.4435C114.848 78.2659 117.651 77.5671 120.012 76.2481C120.641 75.8932 121.248 75.5004 121.829 75.0718C122.286 74.7381 121.843 73.9674 121.381 74.3052C119.138 75.9441 116.345 77.2898 113.493 76.8356C112.28 76.6623 111.14 76.1551 110.199 75.3707C109.222 74.4902 108.582 73.2973 108.39 71.9967C108.139 70.5779 108.265 69.1094 108.396 67.6848C108.547 66.042 108.729 64.4023 108.912 62.7628C109.279 59.4641 109.648 56.1606 109.756 52.8411C109.939 47.1602 109.294 41.3116 106.747 36.1583C105.593 33.7544 103.968 31.6069 101.969 29.8431C100.049 28.1871 97.7965 26.9635 95.3627 26.2554C92.9764 25.5458 90.4462 25.4708 88.0221 26.038C85.4378 26.7247 83.1077 28.1454 81.3136 30.1283C80.8569 30.6234 80.4284 31.1438 80.03 31.6869L80.6374 31.5277C79.4321 30.8689 78.0996 30.4761 76.7297 30.3758C75.3597 30.2754 73.9842 30.4698 72.6957 30.9459C71.4449 31.4249 70.3122 32.1682 69.375 33.1251C68.4377 34.0819 67.718 35.2298 67.2649 36.4902C66.3812 38.8757 66.3836 41.9073 67.9115 44.0425C68.3098 44.6121 68.8323 45.0837 69.4396 45.4216C70.047 45.7596 70.7232 45.955 71.4171 45.9932C72.1933 46.0262 72.9707 45.9794 73.7373 45.8535C74.5941 45.7394 75.4503 45.6211 76.3068 45.5048C78.1925 45.2486 80.0791 44.962 81.9865 45.128C83.7989 45.2906 85.5643 45.794 87.1899 46.6115C87.6993 46.8669 88.1495 46.1012 87.638 45.8449Z" fill="#0059EA"/>
</svg>
